# xmcd
#
# Track frame offsets:
# 150
# 13721
# 28233
# 48794
# 58277
# 86008
# 97233
# 112177
# 138618
# 153859
#
# Disc length: 2300 seconds
#
#
# Revision: 0
# Processed by: cddbd v1.5.2PL0 Copyright (c) Steve Scherf et al.
# Submitted via: FreeRIP 2.951 
#
DISCID=8b08fa0a
DTITLE=JD Sumner and The Stamps - Golden Stairs
DYEAR=1900
DGENRE=Gospel
TTITLE0=Walk Dem Golden Stairs
TTITLE1=Sinner's Plea
TTITLE2=Thank God I Am Free
TTITLE3=Someday
TTITLE4=Heaven on Earth
TTITLE5=Ever Since That Wonderful Day
TTITLE6=So Close to Heaven
TTITLE7=Don't Let Me See
TTITLE8=Sweetest Name I Know
TTITLE9=Let Us Break Bread Together
EXTD=JD was a great man!
EXTT0=
EXTT1=
EXTT2=
EXTT3=
EXTT4=
EXTT5=
EXTT6=
EXTT7=
EXTT8=
EXTT9=
PLAYORDER=
